<?xml version="1.0" encoding="UTF-8"?>
<svg id="Camada_1" data-name="Camada 1" xmlns="http://www.w3.org/2000/svg" viewBox="0 0 259.2 75.37">
  <defs>
    <style>
      .cls-1 {
        fill: #09c;
      }
    </style>
  </defs>
  <path class="cls-1" d="M34.52,64.04c-.93.85-2.25,1.05-3.18.2l-14.68-13.39c-7.24-6.6-9.13-17.19-5.26-26.21,3.69-8.6,12.39-14.33,22.02-14.05,9.42.28,17.61,6.28,20.91,14.72,3.62,9.25,1.23,19.43-5.98,26.05l-13.83,12.68ZM32.84,45.28c6.18-.08,10.65-5.18,10.46-11s-4.99-10.47-10.93-10.28-10.39,5.12-10.25,10.89,4.66,10.47,10.71,10.39Z"/>
  <path class="cls-1" d="M145.23,37.87l-4.64.04-.08-10.76c0-.95-.45-1.89-1.07-2.31-.81-.55-1.88-.56-2.84-.17-1.37.56-1.92,2.15-1.94,3.65l-.11,9.54-4.64.06-.03-16.92c1.2-.2,2.33-.08,3.54-.07l.8,2.29c1.36-1.95,3.53-2.69,5.82-2.53,1.95.13,3.59.82,4.71,2.69,1.45-2.27,3.79-2.85,6.24-2.67,2.79.2,4.87,2.11,4.88,5.03l.07,12.13-4.66.07-.08-10.5c0-.91-.27-1.89-.97-2.48-.9-.76-2.2-.67-3.23-.16-2.87,1.42-1.35,9.53-1.77,13.08Z"/>
  <path class="cls-1" d="M86.17,29.27l-4.15-.16c-.13-1.34-.14-2.59,0-3.9h8.8s.03,11.65.03,11.65c-6.09,2.03-15.2,2.65-17.64-4.98-.94-2.94-1.06-6.06-.3-9.06,1.99-7.93,11.38-9.12,17.86-6.29l-1.53,3.75c-1.79-.73-3.5-1.23-5.45-1.17-2.91.1-5.29,1.95-6.06,4.78-.94,3.43-.35,9.3,3.87,10.16,1.55.32,3.07.14,4.55-.17l.03-4.6Z"/>
  <path class="cls-1" d="M165.78,38.16c-3.02-.14-4.84-2.18-4.93-5.03-.17-5.9,6.28-5.6,10.46-5.78.44-.55.17-1.65-.21-2.27-1.14-1.86-5.21-.59-7.03.25-.62-1-1.04-1.93-1.56-3.15,2.99-1.45,6.33-1.95,9.52-1.17,2.6.64,4.15,2.74,4.14,5.4v11.48s-3.2.01-3.2.01l-1.12-2.4c-1.43,2.11-3.66,2.76-6.08,2.65ZM171.42,30.12c-1.88.04-4.73-.09-5.47,1.6-.3.69-.47,1.74.15,2.35,1.1,1.07,3,.74,4.15-.01,1.27-.83,1.45-2.45,1.17-3.94Z"/>
  <path class="cls-1" d="M201.51,38.16c-3.02-.14-4.84-2.18-4.93-5.03-.17-5.9,6.28-5.6,10.46-5.78.44-.55.17-1.65-.21-2.27-1.14-1.86-5.21-.59-7.03.25-.62-1-1.04-1.93-1.56-3.15,2.99-1.45,6.33-1.95,9.52-1.17,2.6.64,4.15,2.74,4.14,5.4v11.48s-3.2.02-3.2.02l-1.12-2.4c-1.43,2.11-3.66,2.76-6.08,2.65ZM207.15,30.12c-1.88.04-4.73-.09-5.47,1.6-.3.69-.47,1.74.15,2.35,1.1,1.07,3,.74,4.15-.01,1.27-.83,1.45-2.45,1.17-3.94Z"/>
  <path class="cls-1" d="M112.72,20.9l.07,16.93c-1.22.19-2.35.08-3.53.08-.5-.88-.41-1.56-.73-2.58-1.4,2.36-3.74,2.93-6.17,2.82-2.94-.13-5.34-2.08-5.36-5.15l-.07-12.08h4.67s.05,10.3.05,10.3c0,.92.21,1.95.91,2.58.97.86,2.48.77,3.63.25,3.04-1.39,1.51-9.61,1.92-13.06,1.42-.18,2.65-.04,4.61-.08Z"/>
  <path class="cls-1" d="M231.7,33.44c.41,1.29.23,2.36.1,3.6-4.72,2.04-12.51,1.77-14.25-4.2-.77-2.65-.66-5.56.48-8.06,1.37-3.02,4.47-4.21,7.63-4.13,3.72.09,6.77,2.44,7.12,6.25.1,1.12.15,2.21.06,3.56l-10.97.04c-.09,2.2,1.44,4,3.65,4.14s3.99-.27,6.18-1.21ZM228.45,27.37c.08-2.14-1.4-3.42-3.31-3.38s-3.28,1.45-3.11,3.39h6.41Z"/>
  <path class="cls-1" d="M246.29,37.61c-3.15.93-6.46.7-9.48-.4l-.02-3.85c1.61.78,7.77,2.48,8.28.32.18-.74-.2-1.35-.9-1.68l-4.68-2.22c-1.65-.78-2.63-2.15-2.73-3.82-.11-1.78.47-3.52,2.25-4.34,3.28-1.52,7.08-1.15,10.49.35-.32,1.2-.81,2.25-1.4,3.4-1.5-.84-6.19-2.07-6.62-.44-.73,2.77,8.35,2.11,8.3,7.86-.02,2.16-1.08,4.11-3.48,4.82Z"/>
  <path class="cls-1" d="M186.78,37.89c-1.63.05-3.13.1-4.63-.04l.03-16.93h3.51s.85,3.14.85,3.14c1.36-2.52,3.89-3.93,6.69-3.22.04,1.44-.09,2.77-.33,4.29-2.44-.37-5.44.31-5.86,2.98-.51,3.2.06,6.33-.24,9.78Z"/>
  <path class="cls-1" d="M123.56,37.76c-1.51.39-2.96.07-4.69.16l-.03-16.94,4.67-.07.05,16.85Z"/>
  <path class="cls-1" d="M72.43,46.9h.81v10.33h6.36v.73h-7.17v-11.05Z"/>
  <path class="cls-1" d="M80.37,53.83c0-2.45,1.75-4.18,4.12-4.18s4.12,1.74,4.12,4.18-1.75,4.19-4.12,4.19-4.12-1.74-4.12-4.19ZM87.81,53.83c0-2.07-1.42-3.47-3.32-3.47s-3.32,1.41-3.32,3.47,1.42,3.47,3.32,3.47,3.32-1.41,3.32-3.47Z"/>
  <path class="cls-1" d="M88.01,60.53l.32-.58c.33.3.81.46,1.34.46.96,0,1.48-.58,1.48-1.66v-9.03h.79v9.06c0,1.39-.79,2.31-2.23,2.31-.66,0-1.31-.17-1.71-.55ZM90.9,47.07c0-.35.28-.65.65-.65s.65.28.65.63-.28.65-.65.65-.65-.28-.65-.63Z"/>
  <path class="cls-1" d="M101.23,52.72v5.23h-.76v-1.47c-.52.95-1.53,1.53-2.97,1.53-1.85,0-2.97-.95-2.97-2.35,0-1.25.79-2.31,3.08-2.31h2.83v-.66c0-1.53-.84-2.35-2.45-2.35-1.14,0-2.16.43-2.84,1.04l-.4-.57c.82-.73,2.02-1.17,3.3-1.17,2.04,0,3.17,1.04,3.17,3.08ZM100.44,55.52v-1.55h-2.81c-1.71,0-2.31.71-2.31,1.66,0,1.07.84,1.74,2.29,1.74s2.35-.66,2.83-1.85Z"/>
  <path class="cls-1" d="M107.74,52.42c0-3.22,2.45-5.61,5.73-5.61,1.56,0,2.97.51,3.93,1.53l-.51.52c-.95-.93-2.1-1.31-3.4-1.31-2.83,0-4.96,2.08-4.96,4.86s2.13,4.86,4.96,4.86c1.3,0,2.45-.39,3.4-1.33l.51.52c-.96,1.03-2.37,1.55-3.93,1.55-3.29,0-5.73-2.38-5.73-5.61Z"/>
  <path class="cls-1" d="M118.58,53.83c0-2.45,1.75-4.18,4.12-4.18s4.12,1.74,4.12,4.18-1.75,4.19-4.12,4.19-4.12-1.74-4.12-4.19ZM126.02,53.83c0-2.07-1.42-3.47-3.32-3.47s-3.32,1.41-3.32,3.47,1.42,3.47,3.32,3.47,3.32-1.41,3.32-3.47Z"/>
  <path class="cls-1" d="M136.65,53.14v4.82h-.79v-4.75c0-1.86-1-2.84-2.67-2.84-1.94,0-3.13,1.25-3.13,3.21v4.39h-.79v-8.24h.76v1.78c.55-1.15,1.71-1.85,3.27-1.85,2.01,0,3.35,1.18,3.35,3.49Z"/>
  <path class="cls-1" d="M147.25,49.71v11.31h-.79v-4.98c-.66,1.25-1.9,1.97-3.36,1.97-2.32,0-4.07-1.71-4.07-4.19s1.75-4.18,4.07-4.18c1.48,0,2.73.73,3.38,2.01v-1.94h.77ZM146.46,53.83c0-2.07-1.42-3.47-3.32-3.47s-3.32,1.41-3.32,3.47,1.42,3.47,3.32,3.47,3.32-1.41,3.32-3.47Z"/>
  <path class="cls-1" d="M157.8,49.71v8.24h-.76v-1.77c-.54,1.15-1.66,1.83-3.11,1.83-2.1,0-3.44-1.18-3.44-3.49v-4.82h.79v4.75c0,1.86.99,2.84,2.72,2.84,1.86,0,3.02-1.25,3.02-3.21v-4.39h.79Z"/>
  <path class="cls-1" d="M160.9,47.07c0-.35.28-.65.65-.65s.65.28.65.63-.28.65-.65.65-.65-.28-.65-.63ZM161.16,49.71h.79v8.24h-.79v-8.24Z"/>
  <path class="cls-1" d="M164.06,56.96l.36-.63c.63.54,1.75.99,2.97.99,1.74,0,2.43-.62,2.43-1.55,0-2.4-5.46-.63-5.46-3.87,0-1.25,1.04-2.26,3.13-2.26,1.04,0,2.18.32,2.83.81l-.36.63c-.69-.5-1.59-.74-2.48-.74-1.61,0-2.32.66-2.32,1.55,0,2.48,5.46.73,5.46,3.87,0,1.34-1.15,2.26-3.25,2.26-1.36,0-2.65-.46-3.3-1.06Z"/>
  <path class="cls-1" d="M176.92,57.43c-.41.39-1.07.58-1.69.58-1.45,0-2.24-.85-2.24-2.24v-5.39h-1.52v-.68h1.52v-1.8h.79v1.8h2.62v.68h-2.62v5.31c0,1.06.52,1.64,1.53,1.64.49,0,.95-.16,1.28-.46l.33.55Z"/>
  <path class="cls-1" d="M185.07,52.72v5.23h-.76v-1.47c-.52.95-1.53,1.53-2.97,1.53-1.85,0-2.97-.95-2.97-2.35,0-1.25.79-2.31,3.08-2.31h2.83v-.66c0-1.53-.84-2.35-2.45-2.35-1.14,0-2.16.43-2.84,1.04l-.39-.57c.82-.73,2.02-1.17,3.3-1.17,2.04,0,3.17,1.04,3.17,3.08ZM184.28,55.52v-1.55h-2.81c-1.71,0-2.31.71-2.31,1.66,0,1.07.84,1.74,2.29,1.74s2.35-.66,2.83-1.85Z"/>
  <path class="cls-1" d="M195.68,46.23v11.72h-.77v-1.94c-.65,1.28-1.9,2.01-3.38,2.01-2.32,0-4.08-1.72-4.08-4.19s1.75-4.18,4.08-4.18c1.47,0,2.7.73,3.36,1.97v-5.38h.79ZM194.89,53.83c0-2.07-1.42-3.47-3.32-3.47s-3.32,1.41-3.32,3.47,1.42,3.47,3.32,3.47,3.32-1.41,3.32-3.47Z"/>
  <path class="cls-1" d="M198.11,53.83c0-2.45,1.75-4.18,4.12-4.18s4.12,1.74,4.12,4.18-1.75,4.19-4.12,4.19-4.12-1.74-4.12-4.19ZM205.55,53.83c0-2.07-1.42-3.47-3.32-3.47s-3.32,1.41-3.32,3.47,1.42,3.47,3.32,3.47,3.32-1.41,3.32-3.47Z"/>
  <path class="cls-1" d="M212.71,49.65v.77c-.06,0-.13-.02-.19-.02-1.83,0-2.92,1.22-2.92,3.25v4.3h-.79v-8.24h.76v1.8c.51-1.2,1.6-1.86,3.14-1.86Z"/>
  <path class="cls-1" d="M211.11,14.23c.07,2.62-1.78,4.98-4.46,4.71-1.77-.17-3.04-2-4.88-1.53-.47.12-.59.77-1.02,1.29-.46.56-1.61.25-2.24.17.01-1.96.9-3.54,2.36-4.31,2.78-1.45,4.46,1.38,6.69,1.25.67-.04.85-.82,1.35-1.4.45-.52,1.49-.17,2.19-.19Z"/>
  <path class="cls-1" d="M121.3,18.75c-1.64.03-2.66-.87-2.67-2.29-.01-1.5,1-2.32,2.57-2.32,1.46,0,2.5.72,2.57,2.07.08,1.48-.82,2.5-2.47,2.53Z"/>
</svg>