<?xml version="1.0" encoding="UTF-8"?>
<svg id="Camada_1" data-name="Camada 1" xmlns="http://www.w3.org/2000/svg" viewBox="0 0 1920 557.25">
  <defs>
    <style>
      .cls-1 {
        fill: #fff;
      }
    </style>
  </defs>
  <g>
    <path class="cls-1" d="M26.95,481.74h51.33v-177.73c0-23.63,19.15-42.78,42.78-42.78h0c23.63,0,42.78,19.15,42.78,42.78v177.73h51.33v-177.73c0-23.63,19.15-42.78,42.78-42.78h0c23.63,0,42.78,19.15,42.78,42.78v177.73h51.33v-177.73c0-23.63,19.15-42.78,42.78-42.78h0c23.63,0,42.78,19.15,42.78,42.78v177.73h51.33v-177.73c0-23.63,19.15-42.78,42.78-42.78h0c23.63,0,42.78,19.15,42.78,42.78v177.73h51.33V212.55H26.95v269.19Z"/>
    <polygon class="cls-1" points="326.83 35.94 94.59 172.9 559.04 172.9 326.83 35.94"/>
    <rect class="cls-1" x="26.95" y="497.33" width="598.9" height="6.58"/>
    <polygon class="cls-1" points="584.56 188.1 353.95 188.1 299.27 188.1 68.66 188.1 57.43 194.68 299.27 194.68 353.95 194.68 595.79 194.68 584.56 188.1"/>
  </g>
  <g>
    <rect class="cls-1" x="681.77" y="388.04" width="11.11" height="116.61"/>
    <polygon class="cls-1" points="771.12 499.11 726.19 388.04 714.41 388.04 714.41 504.66 716.77 504.66 716.77 393.43 761.7 504.66 773.48 504.66 773.48 388.04 771.12 388.04 771.12 499.11"/>
    <polygon class="cls-1" points="826.65 500.62 800.57 388.04 789.29 388.04 816.05 504.66 828 504.66 855.26 388.04 852.9 388.04 826.65 500.62"/>
    <polygon class="cls-1" points="869.05 504.66 922.9 504.66 922.9 502.47 880.16 502.47 880.16 447.44 919.03 447.44 919.03 445.26 880.16 445.26 880.16 390.23 922.9 390.23 922.9 388.04 869.05 388.04 869.05 504.66"/>
    <path class="cls-1" d="M946.12,406.39c0-13.13,7.4-17.84,14.64-17.84,10.43,0,14.47,8.25,14.47,19.86,0,1.01-.17,2.19-.17,3.03h11.11c0-14.3-10.94-25.07-25.24-25.07s-25.58,8.41-25.58,23.39c0,13.8,10.94,26.25,21.54,38.7,9.93,11.78,19.18,23.56,19.18,36.01,0,13.46-7.91,19.69-15.82,19.69-10.26,0-16.15-8.25-16.32-20.02,0-.84.17-2.19.17-3.03h-11.61c0,14.47,11.95,25.24,27.43,25.24,14.64,0,26.92-9.93,26.92-25.75,0-14.3-11.61-27.43-22.55-40.39-9.42-11.27-18.17-22.38-18.17-33.82Z"/>
    <polygon class="cls-1" points="990.21 390.23 1017.64 390.23 1017.64 504.66 1028.74 504.66 1028.74 390.23 1056 390.23 1056 388.04 990.21 388.04 990.21 390.23"/>
    <rect class="cls-1" x="1067.61" y="388.04" width="11.11" height="116.61"/>
    <polygon class="cls-1" points="1138.29 460.57 1112.37 388.04 1100.26 388.04 1100.26 504.66 1102.61 504.66 1102.61 393.6 1133.74 478.91 1134.08 478.91 1164.03 394.61 1164.03 504.66 1175.14 504.66 1175.14 388.04 1164.03 388.04 1138.29 460.57"/>
    <polygon class="cls-1" points="1194.99 504.66 1248.84 504.66 1248.84 502.47 1206.1 502.47 1206.1 447.44 1244.97 447.44 1244.97 445.26 1206.1 445.26 1206.1 390.23 1248.84 390.23 1248.84 388.04 1194.99 388.04 1194.99 504.66"/>
    <polygon class="cls-1" points="1322.37 499.11 1277.44 388.04 1265.66 388.04 1265.66 504.66 1268.02 504.66 1268.02 393.43 1312.95 504.66 1324.73 504.66 1324.73 388.04 1322.37 388.04 1322.37 499.11"/>
    <polygon class="cls-1" points="1400.45 388.04 1334.65 388.04 1334.65 390.23 1362.08 390.23 1362.08 504.66 1373.19 504.66 1373.19 390.23 1400.45 390.23 1400.45 388.04"/>
    <path class="cls-1" d="M1456.82,386.36c-34.33,0-60.24,24.74-60.24,59.91s25.91,60.07,60.24,60.07,60.07-24.9,60.07-60.07-25.75-59.91-60.07-59.91ZM1456.82,504.15c-27.93,0-48.46-23.73-48.46-57.89s21.03-57.72,48.46-57.72,48.46,23.73,48.46,57.72-21.03,57.89-48.46,57.89Z"/>
    <path class="cls-1" d="M1539.78,406.39c0-13.13,7.4-17.84,14.64-17.84,10.43,0,14.47,8.25,14.47,19.86,0,1.01-.17,2.19-.17,3.03h11.11c0-14.3-10.94-25.07-25.24-25.07s-25.58,8.41-25.58,23.39c0,13.8,10.94,26.25,21.54,38.7,9.93,11.78,19.18,23.56,19.18,36.01,0,13.46-7.91,19.69-15.82,19.69-10.26,0-16.15-8.25-16.32-20.02,0-.84.17-2.19.17-3.03h-11.61c0,14.47,11.95,25.24,27.43,25.24,14.64,0,26.92-9.93,26.92-25.75,0-14.3-11.61-27.43-22.55-40.39-9.42-11.27-18.17-22.38-18.17-33.82Z"/>
    <path class="cls-1" d="M1595.14,491.36c-4.38,0-7.57,3.2-7.57,7.4s3.2,7.57,7.57,7.57c1.01,0,1.85-.17,2.86-.5l-6.9,14.64,2.02.84,8.25-18.68c.84-1.01,1.18-2.36,1.18-3.87,0-4.21-3.36-7.4-7.4-7.4Z"/>
    <polygon class="cls-1" points="1664.72 388.04 1653.61 388.04 1653.61 504.66 1711.5 504.66 1711.5 502.47 1664.72 502.47 1664.72 388.04"/>
    <path class="cls-1" d="M1734.72,388.04h-11.95v116.61h11.95c33.32,0,58.73-24.23,58.73-58.39s-25.41-58.22-58.73-58.22ZM1734.72,502.47h-.84v-112.24h.84c26.42,0,46.95,23.22,46.95,56.04s-20.53,56.2-46.95,56.2Z"/>
    <path class="cls-1" d="M1827.43,388.04l-28.27,116.61h2.36l9.76-40.39h34.5l9.26,40.39h11.44l-27.09-116.61h-11.95ZM1811.78,462.09l17.16-70.51,16.32,70.51h-33.49Z"/>
    <path class="cls-1" d="M1885.65,491.36c-4.38,0-7.57,3.2-7.57,7.4s3.2,7.57,7.57,7.57c4.04,0,7.4-3.37,7.4-7.57s-3.37-7.4-7.4-7.4Z"/>
  </g>
  <g>
    <path class="cls-1" d="M797.9,330.44c57.42,0,97.42-36.45,109.36-81.62-15.49,0-29.4,9.33-35.46,23.59-13.77,32.39-39.98,53.84-73.9,53.84-51.29,0-86.78-45.49-86.78-110.65,0-68.71,37.1-110.97,86.78-110.97,35.01,0,60.5,23.07,73.89,54.12,6.07,14.07,20.15,22.98,35.46,22.98-13.55-48.71-55.81-81.29-109.36-81.29-66.13,0-116.13,47.74-116.13,115.17s50,114.84,116.13,114.84Z"/>
    <path class="cls-1" d="M1015.32,234.31l-46.78-130.65h-44.41v4.19h2.6c6.33,0,11.47,5.13,11.48,11.46v192.64c-.22,6.15-5.26,11.08-11.46,11.08h-2.6v4.19h18.58v-169.02c0-8.42,11.71-10.49,14.6-2.58l45.4,124.5h.65l57.42-163.55v210.65h28.07V103.66h-28.07l-45.49,130.65Z"/>
    <path class="cls-1" d="M1373.7,330.44c60.97,0,108.07-40.65,115.17-100.97h-117.1l.03,18.25h4.19v-2.6c0-6.15,4.84-11.16,10.92-11.46h34.38c21.55,0,36.21,22.28,27.25,41.87-14.82,32.39-42.18,50.71-74.84,50.71-51.29,0-86.78-45.49-86.78-110.97s37.1-110.65,86.78-110.65c34.24,0,61.71,20.53,76.12,53.85,6.11,14.14,20.1,23.25,35.5,23.25-13.55-49.03-57.1-81.29-111.62-81.29-66.13,0-116.13,47.74-116.13,114.84s50,115.17,116.13,115.17Z"/>
    <path class="cls-1" d="M1761.11,103.66v18.29h4.19v-2.6c0-6.34,5.14-11.48,11.48-11.48h36.26s0,219.36,0,219.36h28.06V124.34c0-9.1,7.38-16.48,16.48-16.48h19.78c6.34,0,11.48,5.15,11.48,11.49v2.6h4.19v-18.29h-131.94Z"/>
    <path class="cls-1" d="M1509.03,103.66v4.19h10.8v215.17h-10.8v4.19h117.9v-18.28h-4.19v2.6c0,6.34-5.14,11.48-11.48,11.48h-48.48c-8.04,0-14.56-6.52-14.56-14.55v-90.93h54.64c6.34,0,11.48,5.14,11.48,11.49v2.6h4.19v-32.37h-4.19v2.6c0,6.34-5.14,11.48-11.48,11.48h-54.64s0-105.49,0-105.49h63.04c6.34,0,11.48,5.14,11.48,11.49v2.6h4.19v-18.28h-117.9Z"/>
    <path class="cls-1" d="M1646.81,295h0c7.02,21.14,28.26,35.45,53.98,35.45,29.68,0,55.81-19.36,55.81-50.97,0-28.39-23.23-52.9-44.52-76.78-18.39-20.97-35.81-41.94-35.81-64.84,0-24.84,12.9-33.23,25.81-33.23,17.74,0,25.87,8.97,25.82,24.53-.01,11.75,9.51,21.27,21.25,21.27h5.83c0-28.39-22.58-50-51.94-50s-53.23,16.77-53.23,46.78c0,28.39,21.94,51.94,42.91,75.16,19.36,21.61,37.42,43.23,37.42,67.74s-14.19,36.13-28.06,36.13c-17.74,0-28.71-13.87-28.71-36.78v-10h-41.2v4.2h2.6c5.94,0,10.05,5.29,11.73,10.32.03.09.05.18.08.27.08.25.16.5.22.74Z"/>
    <path class="cls-1" d="M1229.23,103.66v4.19h3.04c6.34,0,10.6,3.86,8.9,11.33l-36.44,161.45c-2.11,9.35-15.43,9.35-17.53,0l-39.94-176.97h-28.39l50,223.56h29.68l50.65-223.56h-19.96Z"/>
  </g>
</svg>